# Blender v2.79 (sub 0) OBJ File: 'nuke.blend'
# www.blender.org
mtllib nuke.mtl
o Plane
v -0.860628 0.000000 0.860628
v 0.860628 0.000000 0.860628
v -0.860628 0.000000 -0.860628
v 0.860628 0.000000 -0.860628
v -0.755468 4.404221 0.755468
v 0.755468 4.404221 0.755468
v -0.755468 4.404221 -0.755468
v 0.755468 4.404221 -0.755468
v -0.010455 6.296945 0.010455
v 0.010455 6.296945 0.010455
v -0.010455 6.296945 -0.010455
v 0.010455 6.296945 -0.010455
v -0.388057 -0.915696 0.388057
v -0.716637 -0.612709 0.716637
v -0.716637 -0.612709 -0.716637
v -0.388057 -0.915696 -0.388057
v 0.388057 -0.915696 -0.388057
v 0.716637 -0.612709 -0.716637
v 0.716637 -0.612709 0.716637
v 0.388057 -0.915696 0.388057
v 0.388057 -2.991587 -0.388057
v -0.388057 -2.991587 -0.388057
v 0.388057 -2.991587 0.388057
v -0.388057 -2.991587 0.388057
v -0.388057 -2.991587 0.388057
v 0.388057 -2.991587 0.388057
v -0.388057 -2.991587 -0.388057
v 0.388057 -2.991587 -0.388057
v -0.388057 -2.753821 0.388057
v -0.388057 -2.753821 -0.388057
v 0.388057 -2.753821 -0.388057
v 0.388057 -2.753821 0.388057
v -0.388057 -2.991587 0.388057
v 0.388057 -2.991587 0.388057
v -0.388057 -2.991587 -0.388057
v 0.388057 -2.991587 -0.388057
v -0.388057 -2.991587 0.388057
v 0.388057 -2.991587 0.388057
v -0.388057 -2.991587 -0.388057
v 0.388057 -2.991587 -0.388057
v -0.286876 0.000000 0.860628
v 0.286876 0.000000 0.860628
v 0.286876 0.000000 -0.860628
v -0.286876 0.000000 -0.860628
v -0.251823 4.404221 0.755468
v 0.251823 4.404221 0.755468
v 0.251823 4.404221 -0.755468
v -0.251823 4.404221 -0.755468
v -0.003485 6.296945 0.010455
v 0.003485 6.296945 0.010455
v 0.003485 6.296945 -0.010455
v -0.003485 6.296945 -0.010455
v 0.238879 -0.612709 -0.716637
v -0.238879 -0.612709 -0.716637
v 0.129352 -0.915696 -0.388057
v -0.129352 -0.915696 -0.388057
v -0.238879 -0.612709 0.716637
v 0.238879 -0.612709 0.716637
v -0.129352 -0.915696 0.388057
v 0.129352 -0.915696 0.388057
v 0.129352 -2.991587 -0.388057
v -0.129352 -2.991587 -0.388057
v -0.129352 -2.991587 0.388057
v 0.129352 -2.991587 0.388057
v -0.129352 -2.991587 0.388057
v 0.129352 -2.991587 0.388057
v 0.129352 -2.991587 -0.388057
v -0.129352 -2.991587 -0.388057
v 0.129352 -2.753821 -0.388057
v -0.129352 -2.753821 -0.388057
v -0.129352 -2.753821 0.388057
v 0.129352 -2.753821 0.388057
v -0.129352 -2.991587 0.388057
v 0.129352 -2.991587 0.388057
v 0.129352 -2.991587 -0.388057
v -0.129352 -2.991587 -0.388057
v -0.129352 -2.991587 0.388057
v 0.129352 -2.991587 0.388057
v 0.129352 -2.991587 -0.388057
v -0.129352 -2.991587 -0.388057
v -0.388057 -2.141113 -0.388057
v -0.388057 -1.528404 -0.388057
v 0.388057 -1.528404 -0.388057
v 0.388057 -2.141113 -0.388057
v 0.388057 -2.141113 0.388057
v 0.388057 -1.528404 0.388057
v -0.388057 -1.528404 0.388057
v -0.388057 -2.141113 0.388057
v 0.085864 -1.127650 0.230329
v 0.085864 -2.541866 0.230329
v -0.085864 -1.127650 0.230329
v -0.085864 -2.541866 0.230329
v -0.085864 -1.127650 -0.230329
v -0.085864 -2.541866 -0.230329
v 0.085864 -1.127650 -0.230329
v 0.085864 -2.541866 -0.230329
v -0.860628 0.000000 -0.286876
v -0.860628 0.000000 0.286876
v 0.860628 0.000000 0.286876
v 0.860628 0.000000 -0.286876
v -0.755468 4.404221 -0.251823
v -0.755468 4.404221 0.251823
v 0.755468 4.404221 0.251823
v 0.755468 4.404221 -0.251823
v -0.010455 6.296945 -0.003485
v -0.010455 6.296945 0.003485
v 0.010455 6.296945 0.003485
v 0.010455 6.296945 -0.003485
v 0.716637 -0.612709 0.238879
v 0.716637 -0.612709 -0.238879
v 0.388057 -0.915696 0.129352
v 0.388057 -0.915696 -0.129352
v -0.716637 -0.612709 -0.238879
v -0.716637 -0.612709 0.238879
v -0.388057 -0.915696 -0.129352
v -0.388057 -0.915696 0.129352
v 0.388057 -2.991587 0.129352
v 0.388057 -2.991587 -0.129352
v -0.388057 -2.991587 -0.129352
v -0.388057 -2.991587 0.129352
v -0.388057 -2.991587 -0.129352
v -0.388057 -2.991587 0.129352
v 0.388057 -2.991587 0.129352
v 0.388057 -2.991587 -0.129352
v 0.388057 -2.753821 0.129352
v 0.388057 -2.753821 -0.129352
v -0.388057 -2.753821 -0.129352
v -0.388057 -2.753821 0.129352
v -0.388057 -2.991587 -0.129352
v -0.388057 -2.991587 0.129352
v 0.388057 -2.991587 0.129352
v 0.388057 -2.991587 -0.129352
v -0.388057 -2.991587 -0.129352
v -0.388057 -2.991587 0.129352
v 0.388057 -2.991587 0.129352
v 0.388057 -2.991587 -0.129352
v -0.129352 -2.991587 -0.129352
v -0.129352 -2.991587 0.129352
v 0.129352 -2.991587 -0.129352
v 0.129352 -2.991587 0.129352
v -0.003485 6.296945 0.003485
v -0.003485 6.296945 -0.003485
v 0.003485 6.296945 0.003485
v 0.003485 6.296945 -0.003485
v -0.257592 -1.127650 -0.076776
v -0.257592 -1.127650 0.076777
v -0.257592 -2.541866 -0.076776
v -0.257592 -2.541866 0.076777
v 0.257592 -1.127650 0.076777
v 0.257592 -1.127650 -0.076776
v 0.257592 -2.541866 0.076777
v 0.257592 -2.541866 -0.076776
v -0.013255 -1.200260 -1.018422
v 0.013255 -1.200260 -1.018422
v 0.013255 -2.469257 -1.018422
v -0.013255 -2.469257 -1.018422
v 0.013255 -1.200260 1.018422
v -0.013255 -1.200260 1.018422
v -0.013255 -2.469257 1.018422
v 0.013255 -2.469257 1.018422
v 1.045685 -1.200260 -0.004167
v 1.045685 -1.200260 0.004167
v 1.045685 -2.469257 0.004167
v 1.045685 -2.469257 -0.004167
v -1.045685 -1.200260 0.004167
v -1.045685 -1.200260 -0.004167
v -1.045685 -2.469257 -0.004167
v -1.045685 -2.469257 0.004167
v 0.845605 0.629174 -0.845605
v 0.830582 1.258349 -0.830582
v 0.815559 1.887523 -0.815559
v 0.800536 2.516698 -0.800536
v 0.785514 3.145872 -0.785514
v 0.770491 3.775047 -0.770491
v 0.770491 3.775047 0.770491
v 0.785514 3.145872 0.785514
v 0.800537 2.516698 0.800537
v 0.815559 1.887523 0.815559
v 0.830582 1.258349 0.830582
v 0.845605 0.629174 0.845605
v -0.845605 0.629174 0.845605
v -0.830582 1.258349 0.830582
v -0.815559 1.887523 0.815559
v -0.800536 2.516698 0.800536
v -0.785514 3.145872 0.785514
v -0.770491 3.775047 0.770491
v -0.770491 3.775047 -0.770491
v -0.785514 3.145872 -0.785514
v -0.800537 2.516698 -0.800537
v -0.815559 1.887523 -0.815559
v -0.830582 1.258349 -0.830582
v -0.845605 0.629174 -0.845605
v -0.281868 0.629174 0.845605
v -0.276861 1.258349 0.830582
v -0.271853 1.887523 0.815559
v -0.266845 2.516698 0.800536
v -0.261838 3.145872 0.785514
v -0.256830 3.775047 0.770491
v 0.281868 0.629174 0.845605
v 0.276861 1.258349 0.830582
v 0.271853 1.887523 0.815559
v 0.266845 2.516698 0.800536
v 0.261838 3.145872 0.785514
v 0.256830 3.775047 0.770491
v 0.281868 0.629174 -0.845605
v 0.276861 1.258349 -0.830582
v 0.271853 1.887523 -0.815559
v 0.266845 2.516698 -0.800536
v 0.261838 3.145872 -0.785514
v 0.256830 3.775047 -0.770491
v -0.281868 0.629174 -0.845605
v -0.276861 1.258349 -0.830582
v -0.271853 1.887523 -0.815559
v -0.266845 2.516698 -0.800536
v -0.261838 3.145872 -0.785514
v -0.256830 3.775047 -0.770491
v -0.845605 0.629174 -0.281868
v -0.830582 1.258349 -0.276861
v -0.815559 1.887523 -0.271853
v -0.800536 2.516698 -0.266845
v -0.785514 3.145872 -0.261838
v -0.770491 3.775047 -0.256830
v -0.845605 0.629174 0.281868
v -0.830582 1.258349 0.276861
v -0.815559 1.887523 0.271853
v -0.800536 2.516698 0.266845
v -0.785514 3.145872 0.261838
v -0.770491 3.775047 0.256830
v 0.845605 0.629174 0.281868
v 0.830582 1.258349 0.276861
v 0.815559 1.887523 0.271853
v 0.800536 2.516698 0.266845
v 0.785514 3.145872 0.261838
v 0.770491 3.775047 0.256830
v 0.845605 0.629174 -0.281868
v 0.830582 1.258349 -0.276861
v 0.815559 1.887523 -0.271853
v 0.800536 2.516698 -0.266845
v 0.785514 3.145872 -0.261838
v 0.770491 3.775047 -0.256830
v 0.085864 -1.127650 0.230329
v 0.085864 -2.541866 0.230329
v -0.085864 -1.127650 0.230329
v -0.085864 -2.541866 0.230329
v -0.085864 -2.541866 -0.230329
v 0.085864 -2.541866 -0.230329
v -0.257592 -1.127650 -0.076776
v -0.257592 -1.127650 0.076777
v -0.257592 -2.541866 -0.076776
v -0.257592 -2.541866 0.076777
v 0.257592 -2.541866 0.076777
v 0.257592 -2.541866 -0.076776
vn 0.0000 0.3663 -0.9305
vn 0.0000 1.0000 0.0000
vn 0.0000 0.3663 0.9305
vn 0.9305 0.3663 0.0000
vn -0.9305 0.3663 0.0000
vn 0.0000 1.0000 -0.0001
vn 0.0000 1.0000 0.0001
vn 0.0000 0.0000 -1.0000
vn 0.0000 0.9958 -0.0917
vn 0.9958 0.0000 -0.0917
vn 0.0000 -0.9958 -0.0917
vn -0.9958 0.0000 -0.0917
vn 0.0000 0.0000 1.0000
vn 0.0000 0.9958 0.0917
vn -0.9958 0.0000 0.0917
vn 0.0000 -0.9958 0.0917
vn 0.9958 0.0000 0.0917
vn 1.0000 0.0000 0.0000
vn 0.0917 0.9958 0.0000
vn 0.0917 0.0000 0.9958
vn 0.0917 -0.9958 0.0000
vn 0.0917 0.0000 -0.9958
vn -1.0000 0.0000 0.0000
vn -0.0917 0.9958 0.0000
vn -0.0917 0.0000 -0.9958
vn -0.0917 -0.9958 0.0000
vn -0.0917 0.0000 0.9958
vn 0.9997 0.0239 0.0000
vn -0.9997 0.0239 0.0000
vn 0.0000 0.0239 -0.9997
vn 0.0000 0.0239 0.9997
vn 0.9735 -0.2288 0.0000
vn 0.6779 -0.7352 0.0000
vn -0.9735 -0.2288 0.0000
vn -0.6779 -0.7352 0.0000
vn 0.0000 -0.2288 -0.9735
vn 0.0000 -0.7352 -0.6779
vn 0.0000 -0.2288 0.9735
vn 0.0000 -0.7352 0.6779
vn 0.9429 0.1296 -0.3069
vn -0.9429 0.1296 0.3069
vn -0.3690 0.1558 -0.9163
vn 0.3690 0.1558 0.9163
vn 0.0000 -1.0000 0.0000
vn -0.3690 0.1558 0.9163
vn 0.0000 0.5970 0.8022
vn 0.3690 0.1558 -0.9163
vn 0.0000 0.5970 -0.8022
vn 0.0000 -0.5970 -0.8022
vn 0.3690 -0.1558 -0.9163
vn 0.4627 0.0000 -0.8865
vn 0.0000 -0.5970 0.8022
vn -0.3690 -0.1558 0.9163
vn -0.4627 0.0000 0.8865
vn 0.3690 -0.1558 0.9163
vn 0.4627 0.0000 0.8865
vn -0.3690 -0.1558 -0.9163
vn -0.4627 0.0000 -0.8865
vn -0.9429 -0.1296 0.3069
vn -0.9223 0.0000 0.3865
vn 0.9429 -0.1296 -0.3069
vn 0.9223 0.0000 -0.3865
vn 0.9223 0.0000 0.3865
vn 0.9429 -0.1296 0.3069
vn 0.8516 -0.5242 0.0000
vn -0.9223 0.0000 -0.3865
vn -0.9429 -0.1296 -0.3069
vn -0.8516 -0.5242 0.0000
vn -0.9429 0.1296 -0.3069
vn -0.8516 0.5242 0.0000
vn 0.9429 0.1296 0.3069
vn 0.8516 0.5242 0.0000
usemtl Material.002
s off
f 48//1 7//1 11//1 52//1
f 144//2 108//2 12//2 51//2
f 46//3 6//3 10//3 50//3
f 104//4 8//4 12//4 108//4
f 102//5 5//5 9//5 106//5
f 5//3 45//3 49//3 9//3
f 45//3 46//3 50//3 49//3
f 105//2 142//2 52//2 11//2
f 142//2 144//2 51//2 52//2
f 8//1 47//1 51//1 12//1
f 47//1 48//1 52//1 51//1
f 49//2 50//2 143//2 141//2
f 141//2 143//2 144//2 142//2
f 9//2 49//2 141//2 106//2
f 106//6 141//6 142//6 105//6
f 7//5 101//5 105//5 11//5
f 101//5 102//5 106//5 105//5
f 6//4 103//4 107//4 10//4
f 103//4 104//4 108//4 107//4
f 50//7 10//7 107//7 143//7
f 143//2 107//2 108//2 144//2
f 153//8 154//8 155//8 156//8
f 95//9 154//9 153//9 93//9
f 96//10 155//10 154//10 95//10
f 94//11 156//11 155//11 96//11
f 93//12 153//12 156//12 94//12
f 157//13 158//13 159//13 160//13
f 91//14 158//14 157//14 89//14
f 92//15 159//15 158//15 91//15
f 90//16 160//16 159//16 92//16
f 89//17 157//17 160//17 90//17
f 161//18 162//18 163//18 164//18
f 149//19 162//19 161//19 150//19
f 151//20 163//20 162//20 149//20
f 152//21 164//21 163//21 151//21
f 150//22 161//22 164//22 152//22
f 165//23 166//23 167//23 168//23
f 145//24 166//24 165//24 146//24
f 147//25 167//25 166//25 145//25
f 148//26 168//26 167//26 147//26
f 146//27 165//27 168//27 148//27
f 229//28 235//28 236//28 230//28
f 180//28 229//28 230//28 179//28
f 217//29 223//29 224//29 218//29
f 192//29 217//29 218//29 191//29
f 205//30 211//30 212//30 206//30
f 169//30 205//30 206//30 170//30
f 193//31 199//31 200//31 194//31
f 181//31 193//31 194//31 182//31
f 199//31 180//31 179//31 200//31
f 211//30 192//30 191//30 212//30
f 223//29 181//29 182//29 224//29
f 235//28 169//28 170//28 236//28
usemtl Material.003
f 240//28 174//28 8//28 104//28
f 228//29 186//29 5//29 102//29
f 216//30 187//30 7//30 48//30
f 204//31 175//31 6//31 46//31
f 99//32 2//32 19//32 109//32
f 109//33 19//33 20//33 111//33
f 97//34 3//34 15//34 113//34
f 113//35 15//35 16//35 115//35
f 43//36 4//36 18//36 53//36
f 53//37 18//37 17//37 55//37
f 41//38 1//38 14//38 57//38
f 57//39 14//39 13//39 59//39
f 151//40 85//40 32//40 125//40
f 147//41 81//41 30//41 127//41
f 96//42 84//42 31//42 69//42
f 92//43 88//43 29//43 71//43
f 71//13 29//13 25//13 65//13
f 69//8 31//8 28//8 67//8
f 127//23 30//23 27//23 121//23
f 125//18 32//18 26//18 123//18
f 139//44 61//44 21//44 118//44
f 65//13 25//13 33//13 73//13
f 67//13 28//13 36//13 75//13
f 121//13 27//13 35//13 129//13
f 123//13 26//13 34//13 131//13
f 129//13 35//13 39//13 133//13
f 131//13 34//13 38//13 135//13
f 73//13 33//13 37//13 77//13
f 75//13 36//13 40//13 79//13
f 118//13 21//13 40//13 136//13
f 120//13 24//13 37//13 134//13
f 62//13 22//13 39//13 80//13
f 64//13 23//13 38//13 78//13
f 24//13 63//13 77//13 37//13
f 63//13 64//13 78//13 77//13
f 21//13 61//13 79//13 40//13
f 61//13 62//13 80//13 79//13
f 35//13 76//13 80//13 39//13
f 76//13 75//13 79//13 80//13
f 34//13 74//13 78//13 38//13
f 74//13 73//13 77//13 78//13
f 27//13 68//13 76//13 35//13
f 68//13 67//13 75//13 76//13
f 26//13 66//13 74//13 34//13
f 66//13 65//13 73//13 74//13
f 119//44 22//44 62//44 137//44
f 137//44 62//44 61//44 139//44
f 30//8 70//8 68//8 27//8
f 70//8 69//8 67//8 68//8
f 32//13 72//13 66//13 26//13
f 72//13 71//13 65//13 66//13
f 85//45 90//45 72//45 32//45
f 90//46 92//46 71//46 72//46
f 81//47 94//47 70//47 30//47
f 94//48 96//48 69//48 70//48
f 19//39 58//39 60//39 20//39
f 58//39 57//39 59//39 60//39
f 2//38 42//38 58//38 19//38
f 42//38 41//38 57//38 58//38
f 15//37 54//37 56//37 16//37
f 54//37 53//37 55//37 56//37
f 3//36 44//36 54//36 15//36
f 44//36 43//36 53//36 54//36
f 186//31 198//31 45//31 5//31
f 198//31 204//31 46//31 45//31
f 174//30 210//30 47//30 8//30
f 210//30 216//30 48//30 47//30
f 56//49 55//49 95//49 93//49
f 16//50 56//50 93//50 82//50
f 82//51 93//51 94//51 81//51
f 60//52 59//52 91//52 89//52
f 20//53 60//53 89//53 86//53
f 86//54 89//54 90//54 85//54
f 59//55 13//55 87//55 91//55
f 91//56 87//56 88//56 92//56
f 55//57 17//57 83//57 95//57
f 95//58 83//58 84//58 96//58
f 115//59 16//59 82//59 145//59
f 145//60 82//60 81//60 147//60
f 111//61 20//61 86//61 149//61
f 149//62 86//62 85//62 151//62
f 83//63 150//63 152//63 84//63
f 17//64 112//64 150//64 83//64
f 112//65 111//65 149//65 150//65
f 87//66 146//66 148//66 88//66
f 13//67 116//67 146//67 87//67
f 116//68 115//68 145//68 146//68
f 63//44 138//44 140//44 64//44
f 138//44 137//44 139//44 140//44
f 24//44 120//44 138//44 63//44
f 120//44 119//44 137//44 138//44
f 22//13 119//13 133//13 39//13
f 119//13 120//13 134//13 133//13
f 23//13 117//13 135//13 38//13
f 117//13 118//13 136//13 135//13
f 36//13 132//13 136//13 40//13
f 132//13 131//13 135//13 136//13
f 33//13 130//13 134//13 37//13
f 130//13 129//13 133//13 134//13
f 28//13 124//13 132//13 36//13
f 124//13 123//13 131//13 132//13
f 25//13 122//13 130//13 33//13
f 122//13 121//13 129//13 130//13
f 64//44 140//44 117//44 23//44
f 140//44 139//44 118//44 117//44
f 31//18 126//18 124//18 28//18
f 126//18 125//18 123//18 124//18
f 29//23 128//23 122//23 25//23
f 128//23 127//23 121//23 122//23
f 88//69 148//69 128//69 29//69
f 148//70 147//70 127//70 128//70
f 84//71 152//71 126//71 31//71
f 152//72 151//72 125//72 126//72
f 14//35 114//35 116//35 13//35
f 114//35 113//35 115//35 116//35
f 1//34 98//34 114//34 14//34
f 98//34 97//34 113//34 114//34
f 18//33 110//33 112//33 17//33
f 110//33 109//33 111//33 112//33
f 4//32 100//32 110//32 18//32
f 100//32 99//32 109//32 110//32
f 187//29 222//29 101//29 7//29
f 222//29 228//29 102//29 101//29
f 175//28 234//28 103//28 6//28
f 234//28 240//28 104//28 103//28
f 99//28 100//28 235//28 229//28
f 230//28 236//28 237//28 231//28
f 231//28 237//28 238//28 232//28
f 232//28 238//28 239//28 233//28
f 233//28 239//28 240//28 234//28
f 2//28 99//28 229//28 180//28
f 179//28 230//28 231//28 178//28
f 178//28 231//28 232//28 177//28
f 177//28 232//28 233//28 176//28
f 176//28 233//28 234//28 175//28
f 97//29 98//29 223//29 217//29
f 218//29 224//29 225//29 219//29
f 219//29 225//29 226//29 220//29
f 220//29 226//29 227//29 221//29
f 221//29 227//29 228//29 222//29
f 3//29 97//29 217//29 192//29
f 191//29 218//29 219//29 190//29
f 190//29 219//29 220//29 189//29
f 189//29 220//29 221//29 188//29
f 188//29 221//29 222//29 187//29
f 43//30 44//30 211//30 205//30
f 206//30 212//30 213//30 207//30
f 207//30 213//30 214//30 208//30
f 208//30 214//30 215//30 209//30
f 209//30 215//30 216//30 210//30
f 4//30 43//30 205//30 169//30
f 170//30 206//30 207//30 171//30
f 171//30 207//30 208//30 172//30
f 172//30 208//30 209//30 173//30
f 173//30 209//30 210//30 174//30
f 41//31 42//31 199//31 193//31
f 194//31 200//31 201//31 195//31
f 195//31 201//31 202//31 196//31
f 196//31 202//31 203//31 197//31
f 197//31 203//31 204//31 198//31
f 1//31 41//31 193//31 181//31
f 182//31 194//31 195//31 183//31
f 183//31 195//31 196//31 184//31
f 184//31 196//31 197//31 185//31
f 185//31 197//31 198//31 186//31
f 42//31 2//31 180//31 199//31
f 200//31 179//31 178//31 201//31
f 201//31 178//31 177//31 202//31
f 202//31 177//31 176//31 203//31
f 203//31 176//31 175//31 204//31
f 44//30 3//30 192//30 211//30
f 212//30 191//30 190//30 213//30
f 213//30 190//30 189//30 214//30
f 214//30 189//30 188//30 215//30
f 215//30 188//30 187//30 216//30
f 98//29 1//29 181//29 223//29
f 224//29 182//29 183//29 225//29
f 225//29 183//29 184//29 226//29
f 226//29 184//29 185//29 227//29
f 227//29 185//29 186//29 228//29
f 100//28 4//28 169//28 235//28
f 236//28 170//28 171//28 237//28
f 237//28 171//28 172//28 238//28
f 238//28 172//28 173//28 239//28
f 239//28 173//28 174//28 240//28
f 152//13 151//13 251//13 252//13
f 89//13 90//13 242//13 241//13
f 145//13 146//13 248//13 247//13
f 91//13 89//13 241//13 243//13
f 94//13 96//13 246//13 245//13
f 146//13 148//13 250//13 248//13
f 90//13 92//13 244//13 242//13
f 92//13 91//13 243//13 244//13
f 147//13 145//13 247//13 249//13
f 148//13 147//13 249//13 250//13
